<svg xmlns="http://www.w3.org/2000/svg" width="192" height="192" viewBox="0 0 192 192">
  <defs>
    <linearGradient id="bg" x1="0%" y1="0%" x2="100%" y2="100%">
      <stop offset="0%" style="stop-color:#6366f1"/>
      <stop offset="100%" style="stop-color:#8b5cf6"/>
    </linearGradient>
    <linearGradient id="book" x1="0%" y1="0%" x2="100%" y2="100%">
      <stop offset="0%" style="stop-color:#fbbf24"/>
      <stop offset="100%" style="stop-color:#f59e0b"/>
    </linearGradient>
  </defs>
  <!-- Background -->
  <rect width="192" height="192" rx="34.56" fill="url(#bg)"/>
  <!-- Book icon -->
  <g transform="translate(96, 80.64) scale(0.375)">
    <!-- Open book -->
    <path d="M-80,-60 C-80,-60 -10,-75 0,-50 C10,-75 80,-60 80,-60 L80,60 C80,60 10,45 0,70 C-10,45 -80,60 -80,60 Z" fill="url(#book)" stroke="#fff" stroke-width="4"/>
    <!-- Center line -->
    <line x1="0" y1="-50" x2="0" y2="70" stroke="#fff" stroke-width="3" opacity="0.6"/>
    <!-- Page lines left -->
    <line x1="-60" y1="-30" x2="-10" y2="-38" stroke="#fff" stroke-width="2.5" opacity="0.5"/>
    <line x1="-60" y1="-10" x2="-10" y2="-18" stroke="#fff" stroke-width="2.5" opacity="0.5"/>
    <line x1="-60" y1="10" x2="-10" y2="2" stroke="#fff" stroke-width="2.5" opacity="0.5"/>
    <!-- Page lines right -->
    <line x1="60" y1="-30" x2="10" y2="-38" stroke="#fff" stroke-width="2.5" opacity="0.5"/>
    <line x1="60" y1="-10" x2="10" y2="-18" stroke="#fff" stroke-width="2.5" opacity="0.5"/>
    <line x1="60" y1="10" x2="10" y2="2" stroke="#fff" stroke-width="2.5" opacity="0.5"/>
    <!-- Stars -->
    <g transform="translate(-50, -90) scale(0.5)">
      <polygon points="0,-20 6,-6 20,-6 9,4 12,18 0,10 -12,18 -9,4 -20,-6 -6,-6" fill="#fde68a"/>
    </g>
    <g transform="translate(50, -85) scale(0.4)">
      <polygon points="0,-20 6,-6 20,-6 9,4 12,18 0,10 -12,18 -9,4 -20,-6 -6,-6" fill="#fde68a"/>
    </g>
    <g transform="translate(0, -100) scale(0.6)">
      <polygon points="0,-20 6,-6 20,-6 9,4 12,18 0,10 -12,18 -9,4 -20,-6 -6,-6" fill="#fde68a"/>
    </g>
  </g>
  <!-- Text -->
  <text x="96" y="157.44" text-anchor="middle" font-family="system-ui, -apple-system, sans-serif" font-weight="800" font-size="19.200000000000003" fill="white" letter-spacing="0.96">DOMAN</text>
  <text x="96" y="176.64000000000001" text-anchor="middle" font-family="system-ui, -apple-system, sans-serif" font-weight="600" font-size="10.56" fill="rgba(255,255,255,0.8)">Aprende a leer</text>
</svg>